<?xml version="1.0" encoding="UTF-8"?><svg id="Calque_1" xmlns="http://www.w3.org/2000/svg" xmlns:xlink="http://www.w3.org/1999/xlink" viewBox="0 0 103.44 101.04"><defs><style>.cls-1{fill:#fff;filter:url(#drop-shadow-1);}.cls-2{fill:#0065fc;}</style><filter id="drop-shadow-1" filterUnits="userSpaceOnUse"><feOffset dx="0" dy="0"/><feGaussianBlur result="blur" stdDeviation="2"/><feFlood flood-color="#000" flood-opacity=".15"/><feComposite in2="blur" operator="in"/><feComposite in="SourceGraphic"/></filter></defs><rect class="cls-1" x="6.05" y="6.04" width="91.26" height="88.88" rx="44.44" ry="44.44"/><path class="cls-2" d="M58.85,52.25c5.26,2.34,8.75,5.24,8.88,10.82,.2,8.68-6.37,15.75-15.5,16.73-2.67,.29-5.3,1.05-7.92,1.71-2.05,.51-4.18,1.76-4.73-1.86-.09-.59-1.63-.91-2.42-1.47-.99-.71-1.9-1.53-2.43-3.06h5.83V28.58c-4.16,.74-4.69,3.95-5.58,6.84-4.32-2.38-5.04-5.79-1.52-8.95,3.02-2.7,6.56-4.82,9.91-7.14,.48-.33,1.47-.66,1.75-.43,4.24,3.61,9.61,1.23,14.27,2.82,5.2,1.77,9.8,4.08,11.9,9.45,2.22,5.69-.21,12.8-5.5,16.69-1.98,1.46-4.17,2.64-6.96,4.39Zm-8.64-26.09c-3.22-.73-4.47,.98-4.33,4.55,.16,4.13,.02,8.27,.04,12.41,.04,9.91,1.7,10.81,10.6,5.73,6.39-3.64,9.56-9.11,8.22-14.17-1.32-4.99-6.97-8.42-14.53-8.52Zm11.39,38.15c.07-6.16-7.01-11.58-13.12-9.88-.77,.21-1.75,1.48-1.77,2.28-.14,5.77-.15,11.54,.08,17.3,.03,.86,1.55,2.34,2.41,2.36,6.48,.17,12.33-5.66,12.41-12.07Z"/></svg>